<svg width="100%" height="100%" viewBox="0 0 134 27" fill="none" xmlns="http://www.w3.org/2000/svg" style="fill: none !important;">
<g clip-path="url(#clip0_28028_113338)" style="fill: none !important;">
<path d="M28.1744 0.219277C28.2508 0.298231 28.3046 0.404864 28.324 0.548705C28.339 0.658968 28.3277 0.7715 28.2983 0.87904C27.331 4.43695 26.4081 8.00666 25.505 11.5818C24.6589 14.9319 24.1192 18.5597 22.7948 21.7555C22.0314 23.5978 20.7573 25.3157 18.9498 26.1452C17.7036 26.7169 16.2726 26.8285 14.9261 26.5726C11.7279 25.9646 9.02994 23.0573 8.91558 19.7916L2.60128 19.7862C2.61845 22.8586 4.70936 25.8116 7.59396 26.838C5.40543 26.6248 3.31678 25.5126 1.91425 23.8124C0.59444 22.2124 0.000976562 20.2558 0.000976562 18.2212C0.000976562 18.0283 0.171829 17.644 0.445735 17.6454C2.06974 17.6531 7.86561 17.6572 10.1414 17.659C10.5473 17.659 10.8845 18.0569 10.8537 18.2588C10.5473 20.2749 11.3577 22.462 13.0047 23.6604C16.2808 26.044 19.8886 23.7366 21.0194 20.3579C21.9546 17.5632 22.4468 14.5707 23.1596 11.7111C23.9551 8.51986 24.7872 5.33811 25.6559 2.1659L10.4722 2.17452L9.06474 6.15669L18.1864 6.28828C17.5468 8.78894 16.9072 11.2896 16.2677 13.7898C16.0462 14.656 15.8148 15.5436 15.3018 16.2741C14.7883 17.0051 13.9236 17.5564 13.0409 17.4394L15.4717 8.3252C12.7919 8.34244 10.112 8.33382 7.43215 8.29979C6.92954 8.29343 6.26375 8.15458 6.34421 7.55199C6.35008 7.50616 6.36184 7.46124 6.3754 7.41723C7.01541 5.34946 7.6934 3.29303 8.40709 1.24976C8.85275 -0.0280207 8.95988 0.0445805 10.2838 0.041858C11.4223 0.0391354 12.5609 0.0364129 13.6999 0.0332366C18.2546 0.0218926 22.8093 0.0110025 27.364 -0.000341456C27.651 -0.00124897 27.9832 0.0218927 28.1744 0.219277Z" fill="#FF5C01" style="fill: rgb(255, 92, 1) !important;"/>
</g>
<path d="M34.7604 19.4934C31.8234 19.4934 29.9084 18.9029 29.0155 17.7218C28.2639 16.7305 28.1296 15.2977 28.6123 13.4233H33.6639C33.4547 14.2359 33.432 14.8778 33.5958 15.3491C33.8297 16.0262 34.4866 16.3648 35.5663 16.3648C36.6571 16.3648 37.4912 16.0262 38.0684 15.3491C38.4793 14.8616 38.7873 14.2197 38.9924 13.4233L40.4954 7.58856H45.5469L44.027 13.488C43.5554 15.3192 42.6913 16.7303 41.4347 17.7216C39.9276 18.9029 37.7028 19.4935 34.7604 19.4934Z" fill="currentColor" style="fill: rgb(255, 255, 255) !important;"/>
<path d="M55.1123 7.34497C58.0885 7.34491 60.1262 7.93778 61.2246 9.12427C62.1957 10.1751 62.4485 11.6052 61.9824 13.4143C61.5152 15.2292 60.5246 16.6623 59.0117 17.7131C57.302 18.8995 54.9593 19.4933 51.9834 19.4934C49.0071 19.4934 46.9695 18.8996 45.8711 17.7131C44.9 16.6622 44.6477 15.2291 45.1152 13.4143C45.5815 11.6051 46.5715 10.1752 48.084 9.12427C49.7937 7.93799 52.1364 7.34507 55.1123 7.34497ZM53.1562 10.5403C53.0578 10.5117 52.9524 10.5591 52.9082 10.6516C52.8958 10.6777 52.8899 10.7168 52.877 10.7932L52.0059 15.9299C51.9876 16.0379 51.9783 16.0926 51.9834 16.1262C52.0022 16.2475 52.121 16.3272 52.2402 16.2981C52.2733 16.29 52.3201 16.2599 52.4131 16.2014L56.9385 13.3538C57.0078 13.3102 57.0427 13.2881 57.0625 13.2659C57.1327 13.1865 57.133 13.0667 57.0625 12.9875C57.0426 12.9654 57.0069 12.9431 56.9375 12.8997L53.2832 10.6106C53.2175 10.5694 53.184 10.5484 53.1562 10.5403Z" fill="currentColor" style="fill: rgb(255, 255, 255) !important;"/>
<path d="M69.8186 19.2416H64.7671L66.1906 13.7158L61.2002 7.58063H66.7973L69.398 11.0667L73.7868 7.58063H79.3839L71.2415 13.7158L69.8186 19.2416Z" fill="currentColor" style="fill: rgb(255, 255, 255) !important;"/>
<path d="M79.9615 19.4934C77.0246 19.4934 75.1097 18.9029 74.2166 17.7218C73.4651 16.7305 73.3307 15.2977 73.8135 13.4233H78.8651C78.6558 14.2359 78.633 14.8778 78.797 15.3491C79.0309 16.0262 79.6877 16.3648 80.7674 16.3648C81.8583 16.3648 82.6923 16.0262 83.2696 15.3491C83.6805 14.8616 83.9885 14.2197 84.1936 13.4233L85.6966 7.58856H90.7482L89.2283 13.488C88.7567 15.3192 87.8926 16.7303 86.636 17.7216C85.1286 18.9029 82.9038 19.4935 79.9615 19.4934Z" fill="currentColor" style="fill: rgb(255, 255, 255) !important;"/>
<path d="M106.369 19.2415H101.25L100.609 17.3318H93.0151L91.3901 19.2415H86.2715L96.9766 7.5889H101.667L106.369 19.2415ZM99.6489 14.4471L98.4699 10.9123L95.4621 14.4469L99.6489 14.4471Z" fill="currentColor" style="fill: rgb(255, 255, 255) !important;"/>
<path d="M130.093 19.2415H125.041L126.956 11.8061L120.527 19.2415H116.759L114.168 11.8061L112.253 19.2415H107.201L110.205 7.58044H116.205L119.505 15.9096L127.088 7.58044H133.097L130.093 19.2415Z" fill="currentColor" style="fill: rgb(255, 255, 255) !important;"/>
<defs style="fill: none !important;">
<clipPath id="clip0_28028_113338" style="fill: none !important;">
<rect width="28.3294" height="26.8384" fill="currentColor" style="fill: rgb(255, 255, 255) !important;"/>
</clipPath>
</defs>
</svg>